<svg width="20" height="20" viewBox="0 0 20 20" fill="none" xmlns="http://www.w3.org/2000/svg">
<path d="M13.0422 13.7083V19.9994H10.3341V14.0832C10.3341 13.8992 10.1848 13.7499 10.0008 13.7499C9.81671 13.7499 9.66747 13.8992 9.66747 14.0832V19.9994H6.95935V13.7083C6.95935 13.1569 7.4079 12.7083 7.95927 12.7083H12.0423C12.5937 12.7083 13.0422 13.1569 13.0422 13.7083ZM18.5416 10.5639C17.3859 11.0373 16.0366 10.8456 15.0511 10.0139C14.925 9.90746 14.7427 9.90721 14.6167 10.0137C13.3476 11.0854 11.4886 11.0858 10.219 10.0147C10.0924 9.9078 9.90924 9.9078 9.78259 10.0147C8.51244 11.0863 6.65237 11.0851 5.38422 10.0132C5.2581 9.90663 5.0757 9.9068 4.94954 10.0133C3.96366 10.8458 2.61435 11.0375 1.46035 10.5639C1.24141 10.474 1.00151 10.6357 1.00151 10.8723V18.3329C1.00151 19.2533 1.74767 19.9995 2.66805 19.9995H6.29277V13.7083C6.29277 12.7894 7.04038 12.0418 7.95931 12.0418H12.0423C12.9613 12.0418 13.7089 12.7894 13.7089 13.7083V19.9995H17.3336C18.254 19.9995 19.0001 19.2533 19.0001 18.3329V10.8725C19.0001 10.636 18.7604 10.4743 18.5416 10.5639ZM2.50136 5.66721C2.30991 5.66721 2.15622 5.50584 2.16876 5.31173C2.18022 5.13458 2.33525 5.00059 2.51277 5.00059H19.3778C19.6177 5.00059 19.779 4.75486 19.6836 4.53475L17.806 0.201794C17.7531 0.0797205 17.6331 0.000976562 17.5002 0.000976562H2.50136C2.36845 0.000976562 2.24846 0.0797205 2.19555 0.201794L0.029048 5.20141C-0.009824 5.28974 0.00155013 5.1555 0.00155013 7.40166C0.00404993 8.91779 1.2377 10.151 2.75134 10.151C3.69668 10.151 4.5327 9.67015 5.02775 8.9397C5.09499 8.84046 5.23894 8.84046 5.30618 8.93974C6.40072 10.5555 8.76846 10.5519 9.86166 8.94091C9.92891 8.84179 10.0727 8.84179 10.1399 8.94091C11.234 10.5532 13.6 10.554 14.6946 8.94087C14.7609 8.84317 14.9045 8.83975 14.9706 8.93754C15.4715 9.67806 16.3236 10.163 17.2858 10.1508C18.7975 10.1316 20 8.87088 20 7.35903V6.00047C20 5.8164 19.8508 5.66716 19.6667 5.66716H2.50136V5.66721Z" fill="black"/>
</svg>
