<svg width="21" height="20" viewBox="0 0 21 20" fill="none" xmlns="http://www.w3.org/2000/svg">
<g clip-path="url(#clip0)">
<path d="M19.0263 16.8297V15.7815C19.0263 12.882 16.6673 10.523 13.7678 10.523H4.60035V0H1.17188V20H4.60035V14.4122H13.7678C14.5229 14.4122 15.1371 15.0265 15.1371 15.7815V16.8297H14.4281V19.4141H19.7354V16.8297H19.0263Z" fill="#4C4C4C"/>
<path d="M11.1283 2.86766H14.7188L14.7768 1.9777C14.8465 0.906875 13.9967 0 12.9236 0C11.8505 0 11.0007 0.906875 11.0704 1.9777L11.1283 2.86766Z" fill="#4C4C4C"/>
<path d="M15.7594 9.6675V7.14449H14.4396L14.6417 4.03906H11.2037L11.4058 7.14449H10.0859V9.35062H13.7654C14.4612 9.35066 15.1313 9.46219 15.7594 9.6675Z" fill="#4C4C4C"/>
</g>
<defs>
<clipPath id="clip0">
<rect width="20" height="20" fill="white" transform="translate(0.453125)"/>
</clipPath>
</defs>
</svg>
