<svg width="9" height="8" viewBox="0 0 9 8" fill="none" xmlns="http://www.w3.org/2000/svg">
<path d="M9 6.4H8.47266V1.6H9V0H0V1.6H0.527361V6.4H0V8H9V6.4ZM8.47266 1.06667H7.57617V0.533333H8.47266V1.06667ZM1.95117 1.06667V0.533333H2.83008V1.06667H1.95117ZM3.35742 0.533333H4.23633V1.06667H3.35742V0.533333ZM4.76367 0.533333H5.64258V1.06667H4.76367V0.533333ZM6.16992 0.533333H7.04883V1.06667H6.16992V0.533333ZM0.527344 0.533333H1.42383V1.06667H0.527344V0.533333ZM1.05469 1.6H7.94533V6.4H1.05469V1.6ZM2.83008 6.93333V7.46667H1.95117V6.93333H2.83008ZM3.35742 6.93333H4.23633V7.46667H3.35742V6.93333ZM4.76367 6.93333H5.64258V7.46667H4.76367V6.93333ZM6.16992 6.93333H7.04883V7.46667H6.16992V6.93333ZM0.527344 6.93333H1.42383V7.46667H0.527344V6.93333ZM8.47266 7.46667H7.57617V6.93333H8.47266V7.46667Z" fill="white"/>
</svg>
