<svg width="21" height="20" viewBox="0 0 21 20" fill="none" xmlns="http://www.w3.org/2000/svg">
<path d="M13.4973 13.7083V19.9994H10.7892V14.0832C10.7892 13.8992 10.6399 13.7499 10.4559 13.7499C10.2718 13.7499 10.1226 13.8992 10.1226 14.0832V19.9994H7.41443V13.7083C7.41443 13.1569 7.86297 12.7083 8.41435 12.7083H12.4974C13.0487 12.7083 13.4973 13.1569 13.4973 13.7083ZM18.9967 10.5639C17.841 11.0373 16.4917 10.8456 15.5062 10.0139C15.3801 9.90746 15.1978 9.90721 15.0718 10.0137C13.8027 11.0854 11.9437 11.0858 10.6741 10.0147C10.5474 9.9078 10.3643 9.9078 10.2377 10.0147C8.96751 11.0863 7.10745 11.0851 5.8393 10.0132C5.71318 9.90663 5.53078 9.9068 5.40462 10.0133C4.41874 10.8458 3.06943 11.0375 1.91543 10.5639C1.69649 10.474 1.45659 10.6357 1.45659 10.8723V18.3329C1.45659 19.2533 2.20274 19.9995 3.12313 19.9995H6.74785V13.7083C6.74785 12.7894 7.49546 12.0418 8.41439 12.0418H12.4974C13.4163 12.0418 14.1639 12.7894 14.1639 13.7083V19.9995H17.7887C18.7091 19.9995 19.4552 19.2533 19.4552 18.3329V10.8725C19.4552 10.636 19.2155 10.4743 18.9967 10.5639ZM2.95644 5.66721C2.76499 5.66721 2.6113 5.50584 2.62384 5.31173C2.63529 5.13458 2.79032 5.00059 2.96785 5.00059H19.8329C20.0727 5.00059 20.2341 4.75486 20.1387 4.53475L18.2611 0.201794C18.2082 0.0797205 18.0882 0.000976562 17.9553 0.000976562H2.95644C2.82353 0.000976562 2.70354 0.0797205 2.65063 0.201794L0.484126 5.20141C0.445254 5.28974 0.456628 5.1555 0.456628 7.40166C0.459128 8.91779 1.69278 10.151 3.20642 10.151C4.15176 10.151 4.98778 9.67015 5.48282 8.9397C5.55007 8.84046 5.69402 8.84046 5.76126 8.93974C6.8558 10.5555 9.22354 10.5519 10.3167 8.94091C10.384 8.84179 10.5278 8.84179 10.595 8.94091C11.6891 10.5532 14.0551 10.554 15.1497 8.94087C15.216 8.84317 15.3596 8.83975 15.4257 8.93754C15.9266 9.67806 16.7787 10.163 17.7408 10.1508C19.2526 10.1316 20.4551 8.87088 20.4551 7.35903V6.00047C20.4551 5.8164 20.3058 5.66716 20.1218 5.66716H2.95644V5.66721Z" fill="#4C4C4C"/>
</svg>
