<svg width="22" height="20" viewBox="0 0 22 20" fill="none" xmlns="http://www.w3.org/2000/svg">
<path d="M19.9821 4.48829H12.4359L16.2583 0.715166L15.5678 0.0246609L11.5974 3.92109L7.627 0L6.9365 0.690506L10.7589 4.46363H2.47287C1.38779 4.46363 0.5 5.35142 0.5 6.4365V18.0271C0.5 19.1122 1.38779 20 2.47287 20H19.9821C21.0672 20 21.955 19.1122 21.955 18.0271V6.4365C21.955 5.37608 21.0672 4.48829 19.9821 4.48829ZM13.8169 15.4871C13.8169 16.3009 13.151 16.9667 12.3372 16.9667H4.69236C3.87855 16.9667 3.2127 16.3009 3.2127 15.4871V9.07522C3.2127 8.26141 3.87855 7.59556 4.69236 7.59556H12.3372C13.151 7.59556 13.8169 8.26141 13.8169 9.07522V15.4871ZM17.516 16.3748C16.5543 16.3748 15.7898 15.6104 15.7898 14.6486C15.7898 13.6868 16.5543 12.9223 17.516 12.9223C18.4778 12.9223 19.2423 13.6868 19.2423 14.6486C19.2423 15.6104 18.4778 16.3748 17.516 16.3748ZM19.4889 11.3687H15.5432V10.3822H19.4889V11.3687ZM19.4889 8.90259H15.5432V7.91615H19.4889V8.90259Z" fill="white"/>
</svg>
