<svg width="22" height="20" viewBox="0 0 22 20" fill="none" xmlns="http://www.w3.org/2000/svg">
<path d="M19.4821 4.48829H11.9359L15.7583 0.715166L15.0678 0.0246609L11.0974 3.92109L7.127 0L6.4365 0.690506L10.2589 4.46363H1.97287C0.887793 4.46363 0 5.35142 0 6.4365V18.0271C0 19.1122 0.887793 20 1.97287 20H19.4821C20.5672 20 21.455 19.1122 21.455 18.0271V6.4365C21.455 5.37608 20.5672 4.48829 19.4821 4.48829ZM13.3169 15.4871C13.3169 16.3009 12.651 16.9667 11.8372 16.9667H4.19236C3.37855 16.9667 2.7127 16.3009 2.7127 15.4871V9.07522C2.7127 8.26141 3.37855 7.59556 4.19236 7.59556H11.8372C12.651 7.59556 13.3169 8.26141 13.3169 9.07522V15.4871ZM17.016 16.3748C16.0543 16.3748 15.2898 15.6104 15.2898 14.6486C15.2898 13.6868 16.0543 12.9223 17.016 12.9223C17.9778 12.9223 18.7423 13.6868 18.7423 14.6486C18.7423 15.6104 17.9778 16.3748 17.016 16.3748ZM18.9889 11.3687H15.0432V10.3822H18.9889V11.3687ZM18.9889 8.90259H15.0432V7.91615H18.9889V8.90259Z" fill="#4C4C4C"/>
</svg>
